G75*
%MOIN*%
%OFA0B0*%
%FSLAX25Y25*%
%IPPOS*%
%LPD*%
%AMOC8*
5,1,8,0,0,1.08239X$1,22.5*
%
%ADD10C,0.00000*%
%ADD11C,0.00591*%
%ADD12R,0.03150X0.05000*%
%ADD13R,0.07400X0.07400*%
%ADD14C,0.07400*%
%ADD15C,0.00800*%
%ADD16C,0.05000*%
%ADD17R,0.17000X0.06000*%
%ADD18C,0.00984*%
%ADD19C,0.02100*%
%ADD20C,0.01000*%
%ADD21C,0.01200*%
%ADD22C,0.03200*%
%ADD23C,0.01600*%
D10*
X0004900Y0004900D02*
X0004900Y0067900D01*
X0138687Y0067900D01*
X0138687Y0004900D01*
X0004900Y0004900D01*
D11*
X0029786Y0016546D02*
X0029786Y0017924D01*
X0029786Y0016546D02*
X0028014Y0016546D01*
X0028014Y0017924D01*
X0029786Y0017924D01*
X0029786Y0017136D02*
X0028014Y0017136D01*
X0028014Y0017726D02*
X0029786Y0017726D01*
X0029786Y0020876D02*
X0029786Y0022254D01*
X0029786Y0020876D02*
X0028014Y0020876D01*
X0028014Y0022254D01*
X0029786Y0022254D01*
X0029786Y0021466D02*
X0028014Y0021466D01*
X0028014Y0022056D02*
X0029786Y0022056D01*
X0028014Y0057046D02*
X0028014Y0058424D01*
X0029786Y0058424D01*
X0029786Y0057046D01*
X0028014Y0057046D01*
X0028014Y0057636D02*
X0029786Y0057636D01*
X0029786Y0058226D02*
X0028014Y0058226D01*
X0028014Y0061376D02*
X0028014Y0062754D01*
X0029786Y0062754D01*
X0029786Y0061376D01*
X0028014Y0061376D01*
X0028014Y0061966D02*
X0029786Y0061966D01*
X0029786Y0062556D02*
X0028014Y0062556D01*
X0116546Y0063286D02*
X0117924Y0063286D01*
X0117924Y0061514D01*
X0116546Y0061514D01*
X0116546Y0063286D01*
X0116546Y0062104D02*
X0117924Y0062104D01*
X0117924Y0062694D02*
X0116546Y0062694D01*
X0116546Y0063284D02*
X0117924Y0063284D01*
X0120876Y0063286D02*
X0122254Y0063286D01*
X0122254Y0061514D01*
X0120876Y0061514D01*
X0120876Y0063286D01*
X0120876Y0062104D02*
X0122254Y0062104D01*
X0122254Y0062694D02*
X0120876Y0062694D01*
X0120876Y0063284D02*
X0122254Y0063284D01*
X0122254Y0055786D02*
X0120876Y0055786D01*
X0122254Y0055786D02*
X0122254Y0054014D01*
X0120876Y0054014D01*
X0120876Y0055786D01*
X0120876Y0054604D02*
X0122254Y0054604D01*
X0122254Y0055194D02*
X0120876Y0055194D01*
X0120876Y0055784D02*
X0122254Y0055784D01*
X0117924Y0055786D02*
X0116546Y0055786D01*
X0117924Y0055786D02*
X0117924Y0054014D01*
X0116546Y0054014D01*
X0116546Y0055786D01*
X0116546Y0054604D02*
X0117924Y0054604D01*
X0117924Y0055194D02*
X0116546Y0055194D01*
X0116546Y0055784D02*
X0117924Y0055784D01*
X0119046Y0011786D02*
X0120424Y0011786D01*
X0120424Y0010014D01*
X0119046Y0010014D01*
X0119046Y0011786D01*
X0119046Y0010604D02*
X0120424Y0010604D01*
X0120424Y0011194D02*
X0119046Y0011194D01*
X0119046Y0011784D02*
X0120424Y0011784D01*
X0123376Y0011786D02*
X0124754Y0011786D01*
X0124754Y0010014D01*
X0123376Y0010014D01*
X0123376Y0011786D01*
X0123376Y0010604D02*
X0124754Y0010604D01*
X0124754Y0011194D02*
X0123376Y0011194D01*
X0123376Y0011784D02*
X0124754Y0011784D01*
D12*
X0108703Y0008900D03*
X0103703Y0008900D03*
X0098703Y0008900D03*
X0076774Y0008900D03*
X0071774Y0008900D03*
X0066774Y0008900D03*
X0061774Y0008900D03*
X0056774Y0008900D03*
X0051774Y0008900D03*
X0046774Y0008900D03*
X0041774Y0008900D03*
X0041774Y0064018D03*
X0046774Y0064018D03*
X0051774Y0064018D03*
X0056774Y0064018D03*
X0061774Y0064018D03*
X0066774Y0064018D03*
X0071774Y0064018D03*
X0076774Y0064018D03*
X0098703Y0064018D03*
X0103703Y0064018D03*
X0108703Y0064018D03*
D13*
X0021400Y0011400D03*
D14*
X0011400Y0011400D03*
X0011400Y0021400D03*
X0021400Y0021400D03*
X0021400Y0031400D03*
X0011400Y0031400D03*
X0011400Y0041400D03*
X0021400Y0041400D03*
X0021400Y0051400D03*
X0011400Y0051400D03*
X0011400Y0061400D03*
X0021400Y0061400D03*
D15*
X0026319Y0062765D02*
X0026126Y0063358D01*
X0025762Y0064073D01*
X0025290Y0064722D01*
X0024722Y0065290D01*
X0024073Y0065762D01*
X0023606Y0066000D01*
X0038799Y0066000D01*
X0038799Y0064406D01*
X0041387Y0064406D01*
X0041387Y0063631D01*
X0042161Y0063631D01*
X0042161Y0060118D01*
X0043533Y0060118D01*
X0043889Y0060214D01*
X0044208Y0060398D01*
X0044274Y0060463D01*
X0044619Y0060118D01*
X0048007Y0060118D01*
X0047823Y0059935D01*
X0030679Y0059935D01*
X0030827Y0060020D01*
X0031142Y0060335D01*
X0031366Y0060722D01*
X0031481Y0061153D01*
X0031481Y0061973D01*
X0028992Y0061973D01*
X0028992Y0062157D01*
X0031481Y0062157D01*
X0031481Y0062978D01*
X0031366Y0063409D01*
X0031142Y0063795D01*
X0030827Y0064111D01*
X0030440Y0064334D01*
X0030009Y0064450D01*
X0028992Y0064450D01*
X0028992Y0062158D01*
X0028808Y0062158D01*
X0028808Y0064450D01*
X0027791Y0064450D01*
X0027360Y0064334D01*
X0026973Y0064111D01*
X0026658Y0063795D01*
X0026434Y0063409D01*
X0026319Y0062978D01*
X0026319Y0062765D01*
X0026386Y0063229D02*
X0026168Y0063229D01*
X0025785Y0064027D02*
X0026890Y0064027D01*
X0028808Y0064027D02*
X0028992Y0064027D01*
X0028992Y0063229D02*
X0028808Y0063229D01*
X0028808Y0062430D02*
X0028992Y0062430D01*
X0031481Y0062430D02*
X0038799Y0062430D01*
X0038799Y0061632D02*
X0031481Y0061632D01*
X0031395Y0060833D02*
X0038978Y0060833D01*
X0038895Y0060978D02*
X0039079Y0060658D01*
X0039340Y0060398D01*
X0039659Y0060214D01*
X0040015Y0060118D01*
X0041387Y0060118D01*
X0041387Y0063631D01*
X0038799Y0063631D01*
X0038799Y0061334D01*
X0038895Y0060978D01*
X0041387Y0060833D02*
X0042161Y0060833D01*
X0042161Y0061632D02*
X0041387Y0061632D01*
X0041387Y0062430D02*
X0042161Y0062430D01*
X0042161Y0063229D02*
X0041387Y0063229D01*
X0041387Y0064027D02*
X0030910Y0064027D01*
X0031414Y0063229D02*
X0038799Y0063229D01*
X0038799Y0064826D02*
X0025187Y0064826D01*
X0024262Y0065624D02*
X0038799Y0065624D01*
X0030842Y0060035D02*
X0047923Y0060035D01*
X0051750Y0057639D02*
X0064261Y0057639D01*
X0064323Y0057788D02*
X0063950Y0056887D01*
X0063950Y0055913D01*
X0064323Y0055012D01*
X0065012Y0054323D01*
X0065913Y0053950D01*
X0066163Y0053950D01*
X0067113Y0053000D01*
X0115162Y0053000D01*
X0115843Y0052319D01*
X0118626Y0052319D01*
X0119400Y0053093D01*
X0120174Y0052319D01*
X0122957Y0052319D01*
X0123638Y0053000D01*
X0128819Y0053000D01*
X0129303Y0052516D01*
X0131855Y0052516D01*
X0132400Y0053061D01*
X0132567Y0052894D01*
X0132998Y0052645D01*
X0133480Y0052516D01*
X0134129Y0052516D01*
X0134129Y0054808D01*
X0134313Y0054808D01*
X0134313Y0054992D01*
X0136605Y0054992D01*
X0136605Y0055641D01*
X0136476Y0056122D01*
X0136227Y0056554D01*
X0135875Y0056906D01*
X0135443Y0057155D01*
X0134962Y0057284D01*
X0134313Y0057284D01*
X0134313Y0054992D01*
X0134129Y0054992D01*
X0134129Y0057284D01*
X0133480Y0057284D01*
X0132998Y0057155D01*
X0132567Y0056906D01*
X0132400Y0056739D01*
X0131855Y0057284D01*
X0129303Y0057284D01*
X0128819Y0056800D01*
X0123638Y0056800D01*
X0122957Y0057481D01*
X0120174Y0057481D01*
X0119400Y0056707D01*
X0118626Y0057481D01*
X0115843Y0057481D01*
X0115162Y0056800D01*
X0068850Y0056800D01*
X0068850Y0056887D01*
X0068477Y0057788D01*
X0067788Y0058477D01*
X0066887Y0058850D01*
X0065913Y0058850D01*
X0065012Y0058477D01*
X0064323Y0057788D01*
X0064973Y0058438D02*
X0052549Y0058438D01*
X0052311Y0058200D02*
X0053600Y0059489D01*
X0053600Y0060118D01*
X0053929Y0060118D01*
X0054274Y0060463D01*
X0054619Y0060118D01*
X0058929Y0060118D01*
X0059274Y0060463D01*
X0059619Y0060118D01*
X0063929Y0060118D01*
X0064274Y0060463D01*
X0064619Y0060118D01*
X0068929Y0060118D01*
X0069274Y0060463D01*
X0069340Y0060398D01*
X0069659Y0060214D01*
X0070015Y0060118D01*
X0071387Y0060118D01*
X0071387Y0063631D01*
X0072161Y0063631D01*
X0072161Y0060118D01*
X0073533Y0060118D01*
X0073889Y0060214D01*
X0074208Y0060398D01*
X0074274Y0060463D01*
X0074340Y0060398D01*
X0074659Y0060214D01*
X0075015Y0060118D01*
X0076387Y0060118D01*
X0076387Y0063631D01*
X0077161Y0063631D01*
X0077161Y0060118D01*
X0078533Y0060118D01*
X0078889Y0060214D01*
X0079208Y0060398D01*
X0079469Y0060658D01*
X0079653Y0060978D01*
X0079749Y0061334D01*
X0079749Y0063631D01*
X0077161Y0063631D01*
X0077161Y0064406D01*
X0079749Y0064406D01*
X0079749Y0066000D01*
X0095728Y0066000D01*
X0095728Y0064406D01*
X0098316Y0064406D01*
X0098316Y0063631D01*
X0095728Y0063631D01*
X0095728Y0061334D01*
X0095824Y0060978D01*
X0096008Y0060658D01*
X0096269Y0060398D01*
X0096588Y0060214D01*
X0096944Y0060118D01*
X0098316Y0060118D01*
X0098316Y0063631D01*
X0099091Y0063631D01*
X0099091Y0064406D01*
X0101678Y0064406D01*
X0103316Y0064406D01*
X0103316Y0063631D01*
X0099091Y0063631D01*
X0099091Y0060118D01*
X0100462Y0060118D01*
X0100818Y0060214D01*
X0101138Y0060398D01*
X0101203Y0060463D01*
X0101269Y0060398D01*
X0101588Y0060214D01*
X0101944Y0060118D01*
X0103316Y0060118D01*
X0103316Y0063631D01*
X0104091Y0063631D01*
X0104091Y0064406D01*
X0106678Y0064406D01*
X0108316Y0064406D01*
X0108316Y0063631D01*
X0104091Y0063631D01*
X0104091Y0060118D01*
X0105462Y0060118D01*
X0105818Y0060214D01*
X0106138Y0060398D01*
X0106203Y0060463D01*
X0106269Y0060398D01*
X0106588Y0060214D01*
X0106944Y0060118D01*
X0108316Y0060118D01*
X0108316Y0063631D01*
X0109091Y0063631D01*
X0109091Y0064406D01*
X0111678Y0064406D01*
X0111678Y0066000D01*
X0136787Y0066000D01*
X0136787Y0050800D01*
X0130050Y0050800D01*
X0130050Y0046800D01*
X0129250Y0046800D01*
X0129250Y0050800D01*
X0120966Y0050800D01*
X0120610Y0050705D01*
X0120290Y0050520D01*
X0120030Y0050260D01*
X0119845Y0049940D01*
X0119750Y0049584D01*
X0119750Y0046800D01*
X0129250Y0046800D01*
X0129250Y0046000D01*
X0130050Y0046000D01*
X0130050Y0042000D01*
X0136787Y0042000D01*
X0136787Y0030800D01*
X0130050Y0030800D01*
X0130050Y0026800D01*
X0129250Y0026800D01*
X0129250Y0030800D01*
X0120966Y0030800D01*
X0120610Y0030705D01*
X0120290Y0030520D01*
X0120030Y0030260D01*
X0119845Y0029940D01*
X0119750Y0029584D01*
X0119750Y0026800D01*
X0129250Y0026800D01*
X0129250Y0026000D01*
X0130050Y0026000D01*
X0130050Y0022000D01*
X0136787Y0022000D01*
X0136787Y0006800D01*
X0111678Y0006800D01*
X0111678Y0008513D01*
X0109091Y0008513D01*
X0109091Y0009287D01*
X0111678Y0009287D01*
X0111678Y0011584D01*
X0111583Y0011940D01*
X0111398Y0012260D01*
X0111138Y0012520D01*
X0110818Y0012705D01*
X0110462Y0012800D01*
X0109091Y0012800D01*
X0109091Y0009287D01*
X0108316Y0009287D01*
X0108316Y0012800D01*
X0106944Y0012800D01*
X0106703Y0012735D01*
X0106703Y0021203D01*
X0106807Y0022795D01*
X0107632Y0025871D01*
X0109224Y0028628D01*
X0111475Y0030880D01*
X0114232Y0032472D01*
X0116662Y0033123D01*
X0116691Y0033094D01*
X0118124Y0032500D01*
X0119676Y0032500D01*
X0120883Y0033000D01*
X0125250Y0033000D01*
X0125250Y0032570D01*
X0126070Y0031750D01*
X0134230Y0031750D01*
X0135050Y0032570D01*
X0135050Y0040230D01*
X0134230Y0041050D01*
X0126070Y0041050D01*
X0125250Y0040230D01*
X0125250Y0039800D01*
X0120883Y0039800D01*
X0119676Y0040300D01*
X0118124Y0040300D01*
X0116691Y0039706D01*
X0116341Y0039356D01*
X0111876Y0038160D01*
X0107727Y0035764D01*
X0104339Y0032376D01*
X0101943Y0028227D01*
X0101943Y0028227D01*
X0100703Y0023599D01*
X0100703Y0012735D01*
X0100462Y0012800D01*
X0099091Y0012800D01*
X0099091Y0009287D01*
X0098316Y0009287D01*
X0098316Y0008513D01*
X0095728Y0008513D01*
X0095728Y0006800D01*
X0079749Y0006800D01*
X0079749Y0011980D01*
X0078929Y0012800D01*
X0078674Y0012800D01*
X0078674Y0026813D01*
X0053850Y0051637D01*
X0053850Y0051887D01*
X0053477Y0052788D01*
X0052788Y0053477D01*
X0051887Y0053850D01*
X0050913Y0053850D01*
X0050012Y0053477D01*
X0049323Y0052788D01*
X0048950Y0051887D01*
X0048950Y0050913D01*
X0049323Y0050012D01*
X0050012Y0049323D01*
X0050913Y0048950D01*
X0051163Y0048950D01*
X0074874Y0025239D01*
X0074874Y0012800D01*
X0074619Y0012800D01*
X0074274Y0012455D01*
X0073929Y0012800D01*
X0073674Y0012800D01*
X0073674Y0024313D01*
X0045800Y0052187D01*
X0044687Y0053300D01*
X0031303Y0053300D01*
X0031350Y0053413D01*
X0031350Y0054387D01*
X0031100Y0054991D01*
X0031100Y0055535D01*
X0049646Y0055535D01*
X0050935Y0056823D01*
X0052311Y0058200D01*
X0050952Y0056841D02*
X0063950Y0056841D01*
X0063950Y0056042D02*
X0050153Y0056042D01*
X0050422Y0053647D02*
X0031350Y0053647D01*
X0031326Y0054445D02*
X0064890Y0054445D01*
X0064227Y0055244D02*
X0031100Y0055244D01*
X0026133Y0049500D02*
X0043113Y0049500D01*
X0069874Y0022739D01*
X0069874Y0012800D01*
X0069619Y0012800D01*
X0069274Y0012455D01*
X0068929Y0012800D01*
X0068674Y0012800D01*
X0068674Y0021813D01*
X0058300Y0032187D01*
X0057187Y0033300D01*
X0055465Y0033300D01*
X0055288Y0033477D01*
X0054387Y0033850D01*
X0053413Y0033850D01*
X0052512Y0033477D01*
X0051823Y0032788D01*
X0051450Y0031887D01*
X0051450Y0030913D01*
X0051823Y0030012D01*
X0052512Y0029323D01*
X0053413Y0028950D01*
X0054387Y0028950D01*
X0055288Y0029323D01*
X0055465Y0029500D01*
X0055613Y0029500D01*
X0064874Y0020239D01*
X0064874Y0012800D01*
X0064619Y0012800D01*
X0064274Y0012455D01*
X0063929Y0012800D01*
X0063300Y0012800D01*
X0063300Y0017187D01*
X0062187Y0018300D01*
X0037187Y0043300D01*
X0026133Y0043300D01*
X0025724Y0044289D01*
X0025512Y0044500D01*
X0037835Y0044500D01*
X0038012Y0044323D01*
X0038913Y0043950D01*
X0039887Y0043950D01*
X0040788Y0044323D01*
X0041477Y0045012D01*
X0041850Y0045913D01*
X0041850Y0046887D01*
X0041477Y0047788D01*
X0040788Y0048477D01*
X0039887Y0048850D01*
X0038913Y0048850D01*
X0038012Y0048477D01*
X0037835Y0048300D01*
X0025512Y0048300D01*
X0025724Y0048511D01*
X0026133Y0049500D01*
X0025866Y0048856D02*
X0043757Y0048856D01*
X0044556Y0048057D02*
X0041208Y0048057D01*
X0041696Y0047259D02*
X0045354Y0047259D01*
X0046153Y0046460D02*
X0041850Y0046460D01*
X0041746Y0045662D02*
X0046951Y0045662D01*
X0047750Y0044863D02*
X0041328Y0044863D01*
X0040164Y0044065D02*
X0048548Y0044065D01*
X0049347Y0043266D02*
X0037221Y0043266D01*
X0038019Y0042468D02*
X0050145Y0042468D01*
X0050944Y0041669D02*
X0038818Y0041669D01*
X0039616Y0040870D02*
X0051743Y0040870D01*
X0052541Y0040072D02*
X0040415Y0040072D01*
X0041214Y0039273D02*
X0053340Y0039273D01*
X0054138Y0038475D02*
X0042012Y0038475D01*
X0042811Y0037676D02*
X0054937Y0037676D01*
X0055735Y0036878D02*
X0043609Y0036878D01*
X0044408Y0036079D02*
X0056534Y0036079D01*
X0057332Y0035281D02*
X0045206Y0035281D01*
X0046005Y0034482D02*
X0058131Y0034482D01*
X0058929Y0033684D02*
X0054788Y0033684D01*
X0053012Y0033684D02*
X0046803Y0033684D01*
X0047602Y0032885D02*
X0051921Y0032885D01*
X0051533Y0032087D02*
X0048400Y0032087D01*
X0049199Y0031288D02*
X0051450Y0031288D01*
X0051625Y0030490D02*
X0049997Y0030490D01*
X0050796Y0029691D02*
X0052144Y0029691D01*
X0051594Y0028893D02*
X0056220Y0028893D01*
X0057019Y0028094D02*
X0052393Y0028094D01*
X0053191Y0027296D02*
X0057817Y0027296D01*
X0058616Y0026497D02*
X0053990Y0026497D01*
X0054788Y0025699D02*
X0059414Y0025699D01*
X0060213Y0024900D02*
X0055587Y0024900D01*
X0056385Y0024102D02*
X0061011Y0024102D01*
X0061810Y0023303D02*
X0057184Y0023303D01*
X0057982Y0022505D02*
X0062608Y0022505D01*
X0063407Y0021706D02*
X0058781Y0021706D01*
X0059579Y0020908D02*
X0064205Y0020908D01*
X0064874Y0020109D02*
X0060378Y0020109D01*
X0061176Y0019311D02*
X0064874Y0019311D01*
X0064874Y0018512D02*
X0061975Y0018512D01*
X0062773Y0017714D02*
X0064874Y0017714D01*
X0064874Y0016915D02*
X0063300Y0016915D01*
X0063300Y0016117D02*
X0064874Y0016117D01*
X0064874Y0015318D02*
X0063300Y0015318D01*
X0063300Y0014520D02*
X0064874Y0014520D01*
X0064874Y0013721D02*
X0063300Y0013721D01*
X0063300Y0012923D02*
X0064874Y0012923D01*
X0068674Y0012923D02*
X0069874Y0012923D01*
X0069874Y0013721D02*
X0068674Y0013721D01*
X0068674Y0014520D02*
X0069874Y0014520D01*
X0069874Y0015318D02*
X0068674Y0015318D01*
X0068674Y0016117D02*
X0069874Y0016117D01*
X0069874Y0016915D02*
X0068674Y0016915D01*
X0068674Y0017714D02*
X0069874Y0017714D01*
X0069874Y0018512D02*
X0068674Y0018512D01*
X0068674Y0019311D02*
X0069874Y0019311D01*
X0069874Y0020109D02*
X0068674Y0020109D01*
X0068674Y0020908D02*
X0069874Y0020908D01*
X0069874Y0021706D02*
X0068674Y0021706D01*
X0067982Y0022505D02*
X0069874Y0022505D01*
X0069310Y0023303D02*
X0067184Y0023303D01*
X0066385Y0024102D02*
X0068511Y0024102D01*
X0067713Y0024900D02*
X0065587Y0024900D01*
X0064788Y0025699D02*
X0066914Y0025699D01*
X0066116Y0026497D02*
X0063990Y0026497D01*
X0063191Y0027296D02*
X0065317Y0027296D01*
X0064519Y0028094D02*
X0062393Y0028094D01*
X0061594Y0028893D02*
X0063720Y0028893D01*
X0062922Y0029691D02*
X0060796Y0029691D01*
X0059997Y0030490D02*
X0062123Y0030490D01*
X0061325Y0031288D02*
X0059199Y0031288D01*
X0058400Y0032087D02*
X0060526Y0032087D01*
X0059728Y0032885D02*
X0057602Y0032885D01*
X0061908Y0036079D02*
X0064034Y0036079D01*
X0064832Y0035281D02*
X0062706Y0035281D01*
X0063505Y0034482D02*
X0065631Y0034482D01*
X0066429Y0033684D02*
X0064303Y0033684D01*
X0065102Y0032885D02*
X0067228Y0032885D01*
X0068026Y0032087D02*
X0065900Y0032087D01*
X0066699Y0031288D02*
X0068825Y0031288D01*
X0069623Y0030490D02*
X0067497Y0030490D01*
X0068296Y0029691D02*
X0070422Y0029691D01*
X0071220Y0028893D02*
X0069094Y0028893D01*
X0069893Y0028094D02*
X0072019Y0028094D01*
X0072817Y0027296D02*
X0070691Y0027296D01*
X0071490Y0026497D02*
X0073616Y0026497D01*
X0074414Y0025699D02*
X0072288Y0025699D01*
X0073087Y0024900D02*
X0074874Y0024900D01*
X0074874Y0024102D02*
X0073674Y0024102D01*
X0073674Y0023303D02*
X0074874Y0023303D01*
X0074874Y0022505D02*
X0073674Y0022505D01*
X0073674Y0021706D02*
X0074874Y0021706D01*
X0074874Y0020908D02*
X0073674Y0020908D01*
X0073674Y0020109D02*
X0074874Y0020109D01*
X0074874Y0019311D02*
X0073674Y0019311D01*
X0073674Y0018512D02*
X0074874Y0018512D01*
X0074874Y0017714D02*
X0073674Y0017714D01*
X0073674Y0016915D02*
X0074874Y0016915D01*
X0074874Y0016117D02*
X0073674Y0016117D01*
X0073674Y0015318D02*
X0074874Y0015318D01*
X0074874Y0014520D02*
X0073674Y0014520D01*
X0073674Y0013721D02*
X0074874Y0013721D01*
X0074874Y0012923D02*
X0073674Y0012923D01*
X0078674Y0012923D02*
X0100703Y0012923D01*
X0100703Y0013721D02*
X0078674Y0013721D01*
X0078674Y0014520D02*
X0100703Y0014520D01*
X0100703Y0015318D02*
X0078674Y0015318D01*
X0078674Y0016117D02*
X0100703Y0016117D01*
X0100703Y0016915D02*
X0078674Y0016915D01*
X0078674Y0017714D02*
X0100703Y0017714D01*
X0100703Y0018512D02*
X0078674Y0018512D01*
X0078674Y0019311D02*
X0100703Y0019311D01*
X0100703Y0020109D02*
X0078674Y0020109D01*
X0078674Y0020908D02*
X0100703Y0020908D01*
X0100703Y0021706D02*
X0078674Y0021706D01*
X0078674Y0022505D02*
X0100703Y0022505D01*
X0100703Y0023303D02*
X0078674Y0023303D01*
X0078674Y0024102D02*
X0100838Y0024102D01*
X0101052Y0024900D02*
X0078674Y0024900D01*
X0078674Y0025699D02*
X0101266Y0025699D01*
X0101480Y0026497D02*
X0078674Y0026497D01*
X0078191Y0027296D02*
X0101694Y0027296D01*
X0101908Y0028094D02*
X0077393Y0028094D01*
X0076594Y0028893D02*
X0102328Y0028893D01*
X0102789Y0029691D02*
X0075796Y0029691D01*
X0074997Y0030490D02*
X0103250Y0030490D01*
X0103711Y0031288D02*
X0074199Y0031288D01*
X0073400Y0032087D02*
X0104172Y0032087D01*
X0104339Y0032376D02*
X0104339Y0032376D01*
X0104339Y0032376D01*
X0104848Y0032885D02*
X0072602Y0032885D01*
X0071803Y0033684D02*
X0105647Y0033684D01*
X0106445Y0034482D02*
X0071005Y0034482D01*
X0070206Y0035281D02*
X0107244Y0035281D01*
X0107727Y0035764D02*
X0107727Y0035764D01*
X0108273Y0036079D02*
X0069408Y0036079D01*
X0068609Y0036878D02*
X0109656Y0036878D01*
X0111039Y0037676D02*
X0067811Y0037676D01*
X0067012Y0038475D02*
X0113052Y0038475D01*
X0111876Y0038160D02*
X0111876Y0038160D01*
X0116032Y0039273D02*
X0066214Y0039273D01*
X0065415Y0040072D02*
X0117574Y0040072D01*
X0120226Y0040072D02*
X0125250Y0040072D01*
X0125891Y0040870D02*
X0064616Y0040870D01*
X0063818Y0041669D02*
X0136787Y0041669D01*
X0136787Y0040870D02*
X0134409Y0040870D01*
X0135050Y0040072D02*
X0136787Y0040072D01*
X0136787Y0039273D02*
X0135050Y0039273D01*
X0135050Y0038475D02*
X0136787Y0038475D01*
X0136787Y0037676D02*
X0135050Y0037676D01*
X0135050Y0036878D02*
X0136787Y0036878D01*
X0136787Y0036079D02*
X0135050Y0036079D01*
X0135050Y0035281D02*
X0136787Y0035281D01*
X0136787Y0034482D02*
X0135050Y0034482D01*
X0135050Y0033684D02*
X0136787Y0033684D01*
X0136787Y0032885D02*
X0135050Y0032885D01*
X0134567Y0032087D02*
X0136787Y0032087D01*
X0136787Y0031288D02*
X0112183Y0031288D01*
X0111085Y0030490D02*
X0120260Y0030490D01*
X0119779Y0029691D02*
X0110287Y0029691D01*
X0109488Y0028893D02*
X0119750Y0028893D01*
X0119750Y0028094D02*
X0108915Y0028094D01*
X0108454Y0027296D02*
X0119750Y0027296D01*
X0119750Y0026000D02*
X0119750Y0023216D01*
X0119845Y0022860D01*
X0120030Y0022540D01*
X0120290Y0022280D01*
X0120610Y0022095D01*
X0120966Y0022000D01*
X0129250Y0022000D01*
X0129250Y0026000D01*
X0119750Y0026000D01*
X0119750Y0025699D02*
X0107586Y0025699D01*
X0107372Y0024900D02*
X0119750Y0024900D01*
X0119750Y0024102D02*
X0107158Y0024102D01*
X0106944Y0023303D02*
X0119750Y0023303D01*
X0120065Y0022505D02*
X0106788Y0022505D01*
X0106736Y0021706D02*
X0136787Y0021706D01*
X0136787Y0020908D02*
X0106703Y0020908D01*
X0106703Y0020109D02*
X0136787Y0020109D01*
X0136787Y0019311D02*
X0106703Y0019311D01*
X0106703Y0018512D02*
X0136787Y0018512D01*
X0136787Y0017714D02*
X0106703Y0017714D01*
X0106703Y0016915D02*
X0136787Y0016915D01*
X0136787Y0016117D02*
X0106703Y0016117D01*
X0106703Y0015318D02*
X0136787Y0015318D01*
X0136787Y0014520D02*
X0106703Y0014520D01*
X0106703Y0013721D02*
X0136787Y0013721D01*
X0136787Y0012923D02*
X0135346Y0012923D01*
X0135375Y0012906D02*
X0134943Y0013155D01*
X0134462Y0013284D01*
X0133813Y0013284D01*
X0133813Y0010992D01*
X0136105Y0010992D01*
X0136105Y0011641D01*
X0135976Y0012122D01*
X0135727Y0012554D01*
X0135375Y0012906D01*
X0135975Y0012124D02*
X0136787Y0012124D01*
X0136787Y0011326D02*
X0136105Y0011326D01*
X0136105Y0010808D02*
X0133813Y0010808D01*
X0133813Y0010992D01*
X0133629Y0010992D01*
X0133629Y0013284D01*
X0132980Y0013284D01*
X0132498Y0013155D01*
X0132067Y0012906D01*
X0131900Y0012739D01*
X0131355Y0013284D01*
X0128803Y0013284D01*
X0128419Y0012900D01*
X0126038Y0012900D01*
X0125457Y0013481D01*
X0122674Y0013481D01*
X0121900Y0012707D01*
X0121126Y0013481D01*
X0118343Y0013481D01*
X0117762Y0012900D01*
X0116865Y0012900D01*
X0116788Y0012977D01*
X0115887Y0013350D01*
X0114913Y0013350D01*
X0114012Y0012977D01*
X0113323Y0012288D01*
X0112950Y0011387D01*
X0112950Y0010413D01*
X0113323Y0009512D01*
X0114012Y0008823D01*
X0114913Y0008450D01*
X0115887Y0008450D01*
X0116788Y0008823D01*
X0116865Y0008900D01*
X0117762Y0008900D01*
X0118343Y0008319D01*
X0121126Y0008319D01*
X0121900Y0009093D01*
X0122674Y0008319D01*
X0125457Y0008319D01*
X0126038Y0008900D01*
X0128419Y0008900D01*
X0128803Y0008516D01*
X0131355Y0008516D01*
X0131900Y0009061D01*
X0132067Y0008894D01*
X0132498Y0008645D01*
X0132980Y0008516D01*
X0133629Y0008516D01*
X0133629Y0010808D01*
X0133813Y0010808D01*
X0133813Y0008516D01*
X0134462Y0008516D01*
X0134943Y0008645D01*
X0135375Y0008894D01*
X0135727Y0009246D01*
X0135976Y0009678D01*
X0136105Y0010159D01*
X0136105Y0010808D01*
X0136105Y0010527D02*
X0136787Y0010527D01*
X0136787Y0009729D02*
X0135990Y0009729D01*
X0135411Y0008930D02*
X0136787Y0008930D01*
X0136787Y0008132D02*
X0111678Y0008132D01*
X0111678Y0007333D02*
X0136787Y0007333D01*
X0133813Y0008930D02*
X0133629Y0008930D01*
X0133629Y0009729D02*
X0133813Y0009729D01*
X0133813Y0010527D02*
X0133629Y0010527D01*
X0133629Y0011326D02*
X0133813Y0011326D01*
X0133813Y0012124D02*
X0133629Y0012124D01*
X0133629Y0012923D02*
X0133813Y0012923D01*
X0132095Y0012923D02*
X0131717Y0012923D01*
X0128442Y0012923D02*
X0126015Y0012923D01*
X0122116Y0012923D02*
X0121684Y0012923D01*
X0117785Y0012923D02*
X0116842Y0012923D01*
X0113958Y0012923D02*
X0106703Y0012923D01*
X0108316Y0012124D02*
X0109091Y0012124D01*
X0109091Y0011326D02*
X0108316Y0011326D01*
X0108316Y0010527D02*
X0109091Y0010527D01*
X0109091Y0009729D02*
X0108316Y0009729D01*
X0109091Y0008930D02*
X0113905Y0008930D01*
X0113233Y0009729D02*
X0111678Y0009729D01*
X0111678Y0010527D02*
X0112950Y0010527D01*
X0112950Y0011326D02*
X0111678Y0011326D01*
X0111476Y0012124D02*
X0113255Y0012124D01*
X0121737Y0008930D02*
X0122063Y0008930D01*
X0131769Y0008930D02*
X0132031Y0008930D01*
X0130050Y0022505D02*
X0129250Y0022505D01*
X0129250Y0023303D02*
X0130050Y0023303D01*
X0130050Y0024102D02*
X0129250Y0024102D01*
X0129250Y0024900D02*
X0130050Y0024900D01*
X0130050Y0025699D02*
X0129250Y0025699D01*
X0129250Y0026497D02*
X0107993Y0026497D01*
X0113566Y0032087D02*
X0125733Y0032087D01*
X0125250Y0032885D02*
X0120606Y0032885D01*
X0117194Y0032885D02*
X0115777Y0032885D01*
X0121171Y0038000D02*
X0126371Y0038000D01*
X0126371Y0034800D01*
X0121171Y0034800D01*
X0121171Y0038000D01*
X0121171Y0035599D02*
X0126371Y0035599D01*
X0126371Y0036398D02*
X0121171Y0036398D01*
X0121171Y0037197D02*
X0126371Y0037197D01*
X0126371Y0037996D02*
X0121171Y0037996D01*
X0120966Y0042000D02*
X0129250Y0042000D01*
X0129250Y0046000D01*
X0119750Y0046000D01*
X0119750Y0043216D01*
X0119845Y0042860D01*
X0120030Y0042540D01*
X0120290Y0042280D01*
X0120610Y0042095D01*
X0120966Y0042000D01*
X0120103Y0042468D02*
X0063019Y0042468D01*
X0062221Y0043266D02*
X0119750Y0043266D01*
X0119750Y0044065D02*
X0061422Y0044065D01*
X0060624Y0044863D02*
X0119750Y0044863D01*
X0119750Y0045662D02*
X0059825Y0045662D01*
X0059027Y0046460D02*
X0129250Y0046460D01*
X0129250Y0045662D02*
X0130050Y0045662D01*
X0130050Y0044863D02*
X0129250Y0044863D01*
X0129250Y0044065D02*
X0130050Y0044065D01*
X0130050Y0043266D02*
X0129250Y0043266D01*
X0129250Y0042468D02*
X0130050Y0042468D01*
X0130050Y0047259D02*
X0129250Y0047259D01*
X0129250Y0048057D02*
X0130050Y0048057D01*
X0130050Y0048856D02*
X0129250Y0048856D01*
X0129250Y0049654D02*
X0130050Y0049654D01*
X0130050Y0050453D02*
X0129250Y0050453D01*
X0128971Y0052848D02*
X0123486Y0052848D01*
X0119645Y0052848D02*
X0119155Y0052848D01*
X0120223Y0050453D02*
X0055034Y0050453D01*
X0054236Y0051251D02*
X0136787Y0051251D01*
X0136787Y0052050D02*
X0053783Y0052050D01*
X0053417Y0052848D02*
X0115314Y0052848D01*
X0119769Y0049654D02*
X0055833Y0049654D01*
X0056631Y0048856D02*
X0119750Y0048856D01*
X0119750Y0048057D02*
X0057430Y0048057D01*
X0058228Y0047259D02*
X0119750Y0047259D01*
X0132187Y0052848D02*
X0132646Y0052848D01*
X0134129Y0052848D02*
X0134313Y0052848D01*
X0134313Y0052516D02*
X0134962Y0052516D01*
X0135443Y0052645D01*
X0135875Y0052894D01*
X0136227Y0053246D01*
X0136476Y0053678D01*
X0136605Y0054159D01*
X0136605Y0054808D01*
X0134313Y0054808D01*
X0134313Y0052516D01*
X0134313Y0053647D02*
X0134129Y0053647D01*
X0134129Y0054445D02*
X0134313Y0054445D01*
X0134313Y0055244D02*
X0134129Y0055244D01*
X0134129Y0056042D02*
X0134313Y0056042D01*
X0136498Y0056042D02*
X0136787Y0056042D01*
X0136787Y0055244D02*
X0136605Y0055244D01*
X0136605Y0054445D02*
X0136787Y0054445D01*
X0136787Y0053647D02*
X0136458Y0053647D01*
X0136787Y0052848D02*
X0135796Y0052848D01*
X0135940Y0056841D02*
X0136787Y0056841D01*
X0136787Y0057639D02*
X0068539Y0057639D01*
X0068850Y0056841D02*
X0115203Y0056841D01*
X0119266Y0056841D02*
X0119534Y0056841D01*
X0123597Y0056841D02*
X0128860Y0056841D01*
X0132299Y0056841D02*
X0132501Y0056841D01*
X0134129Y0056841D02*
X0134313Y0056841D01*
X0136787Y0058438D02*
X0067827Y0058438D01*
X0071387Y0060833D02*
X0072161Y0060833D01*
X0072161Y0061632D02*
X0071387Y0061632D01*
X0071387Y0062430D02*
X0072161Y0062430D01*
X0072161Y0063229D02*
X0071387Y0063229D01*
X0072161Y0063631D02*
X0072161Y0064406D01*
X0076387Y0064406D01*
X0076387Y0063631D01*
X0074749Y0063631D01*
X0072161Y0063631D01*
X0072161Y0064027D02*
X0076387Y0064027D01*
X0077161Y0064027D02*
X0098316Y0064027D01*
X0099091Y0064027D02*
X0103316Y0064027D01*
X0104091Y0064027D02*
X0108316Y0064027D01*
X0109091Y0064027D02*
X0111715Y0064027D01*
X0111823Y0064288D02*
X0111551Y0063631D01*
X0109091Y0063631D01*
X0109091Y0060118D01*
X0110462Y0060118D01*
X0110818Y0060214D01*
X0111138Y0060398D01*
X0111398Y0060658D01*
X0111583Y0060978D01*
X0111678Y0061334D01*
X0111678Y0061862D01*
X0111823Y0061512D01*
X0112512Y0060823D01*
X0113413Y0060450D01*
X0114022Y0060450D01*
X0114072Y0060400D01*
X0115262Y0060400D01*
X0115843Y0059819D01*
X0118626Y0059819D01*
X0119400Y0060593D01*
X0120174Y0059819D01*
X0122957Y0059819D01*
X0123638Y0060500D01*
X0128819Y0060500D01*
X0129303Y0060016D01*
X0131855Y0060016D01*
X0132400Y0060561D01*
X0132567Y0060394D01*
X0132998Y0060145D01*
X0133480Y0060016D01*
X0134129Y0060016D01*
X0134129Y0062308D01*
X0134313Y0062308D01*
X0134313Y0062492D01*
X0136605Y0062492D01*
X0136605Y0063141D01*
X0136476Y0063622D01*
X0136227Y0064054D01*
X0135875Y0064406D01*
X0135443Y0064655D01*
X0134962Y0064784D01*
X0134313Y0064784D01*
X0134313Y0062492D01*
X0134129Y0062492D01*
X0134129Y0064784D01*
X0133480Y0064784D01*
X0132998Y0064655D01*
X0132567Y0064406D01*
X0132400Y0064239D01*
X0131855Y0064784D01*
X0129303Y0064784D01*
X0128819Y0064300D01*
X0123638Y0064300D01*
X0122957Y0064981D01*
X0120174Y0064981D01*
X0119400Y0064207D01*
X0118626Y0064981D01*
X0115843Y0064981D01*
X0115564Y0064701D01*
X0115288Y0064977D01*
X0114387Y0065350D01*
X0113413Y0065350D01*
X0112512Y0064977D01*
X0111823Y0064288D01*
X0111678Y0064826D02*
X0112361Y0064826D01*
X0111678Y0065624D02*
X0136787Y0065624D01*
X0136787Y0064826D02*
X0123112Y0064826D01*
X0120019Y0064826D02*
X0118781Y0064826D01*
X0115688Y0064826D02*
X0115439Y0064826D01*
X0109091Y0063229D02*
X0108316Y0063229D01*
X0108316Y0062430D02*
X0109091Y0062430D01*
X0109091Y0061632D02*
X0108316Y0061632D01*
X0108316Y0060833D02*
X0109091Y0060833D01*
X0111499Y0060833D02*
X0112502Y0060833D01*
X0111773Y0061632D02*
X0111678Y0061632D01*
X0115628Y0060035D02*
X0053600Y0060035D01*
X0053348Y0059236D02*
X0136787Y0059236D01*
X0136787Y0060035D02*
X0135033Y0060035D01*
X0134962Y0060016D02*
X0135443Y0060145D01*
X0135875Y0060394D01*
X0136227Y0060746D01*
X0136476Y0061178D01*
X0136605Y0061659D01*
X0136605Y0062308D01*
X0134313Y0062308D01*
X0134313Y0060016D01*
X0134962Y0060016D01*
X0134313Y0060035D02*
X0134129Y0060035D01*
X0133409Y0060035D02*
X0131874Y0060035D01*
X0134129Y0060833D02*
X0134313Y0060833D01*
X0134313Y0061632D02*
X0134129Y0061632D01*
X0134313Y0062430D02*
X0136787Y0062430D01*
X0136787Y0061632D02*
X0136598Y0061632D01*
X0136787Y0060833D02*
X0136277Y0060833D01*
X0136582Y0063229D02*
X0136787Y0063229D01*
X0136787Y0064027D02*
X0136242Y0064027D01*
X0134313Y0064027D02*
X0134129Y0064027D01*
X0134129Y0063229D02*
X0134313Y0063229D01*
X0129284Y0060035D02*
X0123172Y0060035D01*
X0119958Y0060035D02*
X0118842Y0060035D01*
X0104091Y0060833D02*
X0103316Y0060833D01*
X0103316Y0061632D02*
X0104091Y0061632D01*
X0104091Y0062430D02*
X0103316Y0062430D01*
X0103316Y0063229D02*
X0104091Y0063229D01*
X0099091Y0063229D02*
X0098316Y0063229D01*
X0098316Y0062430D02*
X0099091Y0062430D01*
X0099091Y0061632D02*
X0098316Y0061632D01*
X0098316Y0060833D02*
X0099091Y0060833D01*
X0095907Y0060833D02*
X0079570Y0060833D01*
X0079749Y0061632D02*
X0095728Y0061632D01*
X0095728Y0062430D02*
X0079749Y0062430D01*
X0079749Y0063229D02*
X0095728Y0063229D01*
X0095728Y0064826D02*
X0079749Y0064826D01*
X0079749Y0065624D02*
X0095728Y0065624D01*
X0077161Y0063229D02*
X0076387Y0063229D01*
X0076387Y0062430D02*
X0077161Y0062430D01*
X0077161Y0061632D02*
X0076387Y0061632D01*
X0076387Y0060833D02*
X0077161Y0060833D01*
X0066466Y0053647D02*
X0052378Y0053647D01*
X0049383Y0052848D02*
X0045139Y0052848D01*
X0045937Y0052050D02*
X0049017Y0052050D01*
X0048950Y0051251D02*
X0046736Y0051251D01*
X0047534Y0050453D02*
X0049141Y0050453D01*
X0049681Y0049654D02*
X0048333Y0049654D01*
X0049131Y0048856D02*
X0051257Y0048856D01*
X0052056Y0048057D02*
X0049930Y0048057D01*
X0050728Y0047259D02*
X0052854Y0047259D01*
X0053653Y0046460D02*
X0051527Y0046460D01*
X0052325Y0045662D02*
X0054451Y0045662D01*
X0055250Y0044863D02*
X0053124Y0044863D01*
X0053922Y0044065D02*
X0056048Y0044065D01*
X0056847Y0043266D02*
X0054721Y0043266D01*
X0055519Y0042468D02*
X0057645Y0042468D01*
X0058444Y0041669D02*
X0056318Y0041669D01*
X0057116Y0040870D02*
X0059243Y0040870D01*
X0060041Y0040072D02*
X0057915Y0040072D01*
X0058714Y0039273D02*
X0060840Y0039273D01*
X0061638Y0038475D02*
X0059512Y0038475D01*
X0060311Y0037676D02*
X0062437Y0037676D01*
X0063235Y0036878D02*
X0061109Y0036878D01*
X0046220Y0028893D02*
X0041594Y0028893D01*
X0040796Y0029691D02*
X0045422Y0029691D01*
X0044623Y0030490D02*
X0039997Y0030490D01*
X0039199Y0031288D02*
X0043825Y0031288D01*
X0043026Y0032087D02*
X0038400Y0032087D01*
X0037602Y0032885D02*
X0042228Y0032885D01*
X0041429Y0033684D02*
X0036803Y0033684D01*
X0036005Y0034482D02*
X0040631Y0034482D01*
X0039832Y0035281D02*
X0035206Y0035281D01*
X0034408Y0036079D02*
X0039034Y0036079D01*
X0038235Y0036878D02*
X0033609Y0036878D01*
X0032811Y0037676D02*
X0037437Y0037676D01*
X0036638Y0038475D02*
X0025687Y0038475D01*
X0025724Y0038511D02*
X0026133Y0039500D01*
X0035613Y0039500D01*
X0059500Y0015613D01*
X0059500Y0012681D01*
X0059274Y0012455D01*
X0058929Y0012800D01*
X0057687Y0012800D01*
X0032187Y0038300D01*
X0025512Y0038300D01*
X0025724Y0038511D01*
X0026039Y0039273D02*
X0035840Y0039273D01*
X0038636Y0044065D02*
X0025817Y0044065D01*
X0034660Y0030453D02*
X0048813Y0016300D01*
X0031475Y0016300D01*
X0031481Y0016322D01*
X0031481Y0017142D01*
X0028992Y0017142D01*
X0028992Y0017327D01*
X0031481Y0017327D01*
X0031481Y0018147D01*
X0031366Y0018578D01*
X0031142Y0018965D01*
X0030827Y0019280D01*
X0030675Y0019368D01*
X0031481Y0020174D01*
X0031481Y0022957D01*
X0030488Y0023950D01*
X0027312Y0023950D01*
X0027128Y0023765D01*
X0025940Y0023765D01*
X0025724Y0024289D01*
X0024289Y0025724D01*
X0022656Y0026400D01*
X0024289Y0027076D01*
X0025724Y0028511D01*
X0026133Y0029500D01*
X0030835Y0029500D01*
X0031012Y0029323D01*
X0031913Y0028950D01*
X0032887Y0028950D01*
X0033788Y0029323D01*
X0034477Y0030012D01*
X0034660Y0030453D01*
X0034156Y0029691D02*
X0035422Y0029691D01*
X0036220Y0028893D02*
X0025882Y0028893D01*
X0025307Y0028094D02*
X0037019Y0028094D01*
X0037817Y0027296D02*
X0024508Y0027296D01*
X0022891Y0026497D02*
X0038616Y0026497D01*
X0039414Y0025699D02*
X0024314Y0025699D01*
X0025112Y0024900D02*
X0040213Y0024900D01*
X0041011Y0024102D02*
X0025801Y0024102D01*
X0031134Y0023303D02*
X0041810Y0023303D01*
X0042608Y0022505D02*
X0031481Y0022505D01*
X0031481Y0021706D02*
X0043407Y0021706D01*
X0044205Y0020908D02*
X0031481Y0020908D01*
X0031416Y0020109D02*
X0045004Y0020109D01*
X0045802Y0019311D02*
X0030774Y0019311D01*
X0031383Y0018512D02*
X0046601Y0018512D01*
X0047399Y0017714D02*
X0031481Y0017714D01*
X0031481Y0016915D02*
X0048198Y0016915D01*
X0051975Y0018512D02*
X0056601Y0018512D01*
X0057399Y0017714D02*
X0052773Y0017714D01*
X0053572Y0016915D02*
X0058198Y0016915D01*
X0058996Y0016117D02*
X0054370Y0016117D01*
X0055169Y0015318D02*
X0059500Y0015318D01*
X0059500Y0014520D02*
X0055967Y0014520D01*
X0056766Y0013721D02*
X0059500Y0013721D01*
X0059500Y0012923D02*
X0057564Y0012923D01*
X0055802Y0019311D02*
X0051176Y0019311D01*
X0050378Y0020109D02*
X0055004Y0020109D01*
X0054205Y0020908D02*
X0049579Y0020908D01*
X0048781Y0021706D02*
X0053407Y0021706D01*
X0052608Y0022505D02*
X0047982Y0022505D01*
X0047184Y0023303D02*
X0051810Y0023303D01*
X0051011Y0024102D02*
X0046385Y0024102D01*
X0045587Y0024900D02*
X0050213Y0024900D01*
X0049414Y0025699D02*
X0044788Y0025699D01*
X0043990Y0026497D02*
X0048616Y0026497D01*
X0047817Y0027296D02*
X0043191Y0027296D01*
X0042393Y0028094D02*
X0047019Y0028094D01*
X0027121Y0019365D02*
X0026973Y0019280D01*
X0026658Y0018965D01*
X0026434Y0018578D01*
X0026319Y0018147D01*
X0026319Y0017327D01*
X0028808Y0017327D01*
X0028808Y0017142D01*
X0026319Y0017142D01*
X0026319Y0016322D01*
X0026434Y0015891D01*
X0026658Y0015505D01*
X0026973Y0015189D01*
X0027309Y0014996D01*
X0026500Y0014187D01*
X0026500Y0015680D01*
X0025680Y0016500D01*
X0022897Y0016500D01*
X0024289Y0017076D01*
X0025724Y0018511D01*
X0026077Y0019365D01*
X0027121Y0019365D01*
X0027026Y0019311D02*
X0026055Y0019311D01*
X0025724Y0018512D02*
X0026417Y0018512D01*
X0026319Y0017714D02*
X0024926Y0017714D01*
X0023900Y0016915D02*
X0026319Y0016915D01*
X0026374Y0016117D02*
X0026063Y0016117D01*
X0026500Y0015318D02*
X0026844Y0015318D01*
X0026833Y0014520D02*
X0026500Y0014520D01*
X0030187Y0012500D02*
X0039319Y0012500D01*
X0039079Y0012260D01*
X0038895Y0011940D01*
X0038799Y0011584D01*
X0038799Y0009287D01*
X0041387Y0009287D01*
X0041387Y0008513D01*
X0038799Y0008513D01*
X0038799Y0006800D01*
X0026180Y0006800D01*
X0026500Y0007120D01*
X0026500Y0009500D01*
X0027187Y0009500D01*
X0028300Y0010613D01*
X0030187Y0012500D01*
X0029811Y0012124D02*
X0039001Y0012124D01*
X0038799Y0011326D02*
X0029013Y0011326D01*
X0028214Y0010527D02*
X0038799Y0010527D01*
X0038799Y0009729D02*
X0027416Y0009729D01*
X0026500Y0008930D02*
X0041387Y0008930D01*
X0038799Y0008132D02*
X0026500Y0008132D01*
X0026500Y0007333D02*
X0038799Y0007333D01*
X0016400Y0022656D02*
X0015724Y0024289D01*
X0014289Y0025724D01*
X0012594Y0026426D01*
X0012594Y0026426D01*
X0013358Y0026674D01*
X0014073Y0027038D01*
X0014722Y0027510D01*
X0015290Y0028078D01*
X0015762Y0028727D01*
X0016126Y0029442D01*
X0016374Y0030206D01*
X0017076Y0028511D01*
X0018511Y0027076D01*
X0020144Y0026400D01*
X0018511Y0025724D01*
X0017076Y0024289D01*
X0016400Y0022656D01*
X0016132Y0023303D02*
X0016668Y0023303D01*
X0016999Y0024102D02*
X0015801Y0024102D01*
X0015112Y0024900D02*
X0017688Y0024900D01*
X0018486Y0025699D02*
X0014314Y0025699D01*
X0012815Y0026497D02*
X0019909Y0026497D01*
X0018292Y0027296D02*
X0014428Y0027296D01*
X0015302Y0028094D02*
X0017493Y0028094D01*
X0016918Y0028893D02*
X0015846Y0028893D01*
X0016207Y0029691D02*
X0016588Y0029691D01*
X0016374Y0030206D02*
X0016374Y0030206D01*
X0079605Y0012124D02*
X0095930Y0012124D01*
X0096008Y0012260D02*
X0095824Y0011940D01*
X0095728Y0011584D01*
X0095728Y0009287D01*
X0098316Y0009287D01*
X0098316Y0012800D01*
X0096944Y0012800D01*
X0096588Y0012705D01*
X0096269Y0012520D01*
X0096008Y0012260D01*
X0095728Y0011326D02*
X0079749Y0011326D01*
X0079749Y0010527D02*
X0095728Y0010527D01*
X0095728Y0009729D02*
X0079749Y0009729D01*
X0079749Y0008930D02*
X0098316Y0008930D01*
X0098316Y0009729D02*
X0099091Y0009729D01*
X0099091Y0010527D02*
X0098316Y0010527D01*
X0098316Y0011326D02*
X0099091Y0011326D01*
X0099091Y0012124D02*
X0098316Y0012124D01*
X0095728Y0008132D02*
X0079749Y0008132D01*
X0079749Y0007333D02*
X0095728Y0007333D01*
X0129250Y0027296D02*
X0130050Y0027296D01*
X0130050Y0028094D02*
X0129250Y0028094D01*
X0129250Y0028893D02*
X0130050Y0028893D01*
X0130050Y0029691D02*
X0129250Y0029691D01*
X0129250Y0030490D02*
X0130050Y0030490D01*
D16*
X0118900Y0036400D03*
D17*
X0129650Y0046400D03*
X0129650Y0026400D03*
D18*
X0130571Y0011392D02*
X0130571Y0010408D01*
X0129587Y0010408D01*
X0129587Y0011392D01*
X0130571Y0011392D01*
X0130571Y0011391D02*
X0129587Y0011391D01*
X0134213Y0011392D02*
X0134213Y0010408D01*
X0133229Y0010408D01*
X0133229Y0011392D01*
X0134213Y0011392D01*
X0134213Y0011391D02*
X0133229Y0011391D01*
X0134713Y0054408D02*
X0134713Y0055392D01*
X0134713Y0054408D02*
X0133729Y0054408D01*
X0133729Y0055392D01*
X0134713Y0055392D01*
X0134713Y0055391D02*
X0133729Y0055391D01*
X0131071Y0055392D02*
X0131071Y0054408D01*
X0130087Y0054408D01*
X0130087Y0055392D01*
X0131071Y0055392D01*
X0131071Y0055391D02*
X0130087Y0055391D01*
X0131071Y0061908D02*
X0131071Y0062892D01*
X0131071Y0061908D02*
X0130087Y0061908D01*
X0130087Y0062892D01*
X0131071Y0062892D01*
X0131071Y0062891D02*
X0130087Y0062891D01*
X0134713Y0062892D02*
X0134713Y0061908D01*
X0133729Y0061908D01*
X0133729Y0062892D01*
X0134713Y0062892D01*
X0134713Y0062891D02*
X0133729Y0062891D01*
D19*
X0113900Y0062900D03*
X0124400Y0051900D03*
X0127900Y0051900D03*
X0135900Y0051900D03*
X0118900Y0050900D03*
X0116400Y0047900D03*
X0111400Y0046400D03*
X0113900Y0042400D03*
X0117900Y0042900D03*
X0108900Y0039900D03*
X0103900Y0037400D03*
X0101400Y0032400D03*
X0098900Y0027400D03*
X0098900Y0022400D03*
X0108900Y0022400D03*
X0116400Y0019900D03*
X0121400Y0019900D03*
X0126400Y0019900D03*
X0131400Y0019900D03*
X0135400Y0019900D03*
X0116400Y0024900D03*
X0111400Y0027400D03*
X0116400Y0029900D03*
X0108900Y0017400D03*
X0113400Y0015900D03*
X0115400Y0010900D03*
X0098900Y0017400D03*
X0086400Y0016400D03*
X0060400Y0022400D03*
X0049400Y0024400D03*
X0042900Y0017900D03*
X0034900Y0021400D03*
X0032400Y0031400D03*
X0035400Y0037400D03*
X0043900Y0041400D03*
X0039400Y0046400D03*
X0051400Y0051400D03*
X0058900Y0053900D03*
X0066400Y0056400D03*
X0078900Y0048900D03*
X0088900Y0058900D03*
X0101400Y0046400D03*
X0053900Y0031400D03*
X0031900Y0010400D03*
X0028900Y0053900D03*
X0035900Y0060900D03*
D20*
X0043900Y0051400D02*
X0021400Y0051400D01*
X0008900Y0046400D02*
X0039400Y0046400D01*
X0036400Y0041400D02*
X0061400Y0016400D01*
X0061400Y0009274D01*
X0061774Y0008900D01*
X0056900Y0009026D02*
X0056900Y0010900D01*
X0031400Y0036400D01*
X0016400Y0036400D01*
X0011400Y0041400D01*
X0006400Y0043900D02*
X0008900Y0046400D01*
X0006400Y0043900D02*
X0006400Y0023900D01*
X0008900Y0021400D01*
X0011400Y0021400D01*
X0016400Y0026400D02*
X0029900Y0026400D01*
X0034900Y0021400D01*
X0029400Y0014400D02*
X0026400Y0011400D01*
X0021400Y0011400D01*
X0029400Y0014400D02*
X0048900Y0014400D01*
X0051774Y0011526D01*
X0051774Y0008900D01*
X0056774Y0008900D02*
X0056900Y0009026D01*
X0066774Y0008900D02*
X0066774Y0021026D01*
X0056400Y0031400D01*
X0053900Y0031400D01*
X0071774Y0023526D02*
X0043900Y0051400D01*
X0051400Y0051400D02*
X0076774Y0026026D01*
X0076774Y0008900D01*
X0071774Y0008900D02*
X0071774Y0023526D01*
X0036400Y0041400D02*
X0021400Y0041400D01*
X0021400Y0031400D02*
X0032400Y0031400D01*
X0016400Y0026400D02*
X0011400Y0031400D01*
X0066400Y0056400D02*
X0067900Y0054900D01*
X0117235Y0054900D01*
X0121565Y0054900D02*
X0130579Y0054900D01*
X0130579Y0062400D02*
X0121565Y0062400D01*
D21*
X0117235Y0062400D02*
X0114900Y0062400D01*
X0114400Y0062900D01*
X0113900Y0062900D01*
X0115400Y0010900D02*
X0119735Y0010900D01*
X0124065Y0010900D02*
X0130079Y0010900D01*
D22*
X0118900Y0036400D02*
X0118533Y0036396D01*
X0118166Y0036382D01*
X0117799Y0036360D01*
X0117433Y0036329D01*
X0117068Y0036289D01*
X0116704Y0036241D01*
X0116341Y0036183D01*
X0115980Y0036117D01*
X0115621Y0036042D01*
X0115263Y0035958D01*
X0114908Y0035866D01*
X0114554Y0035765D01*
X0114204Y0035656D01*
X0113856Y0035539D01*
X0113511Y0035412D01*
X0113169Y0035278D01*
X0112831Y0035135D01*
X0112496Y0034985D01*
X0112165Y0034826D01*
X0111838Y0034659D01*
X0111515Y0034485D01*
X0111196Y0034302D01*
X0110881Y0034112D01*
X0110572Y0033915D01*
X0110267Y0033710D01*
X0109967Y0033498D01*
X0109673Y0033278D01*
X0109384Y0033052D01*
X0109100Y0032818D01*
X0108823Y0032578D01*
X0108551Y0032331D01*
X0108285Y0032078D01*
X0108025Y0031818D01*
X0107772Y0031552D01*
X0107525Y0031280D01*
X0107285Y0031003D01*
X0107051Y0030719D01*
X0106825Y0030430D01*
X0106605Y0030136D01*
X0106393Y0029836D01*
X0106188Y0029531D01*
X0105991Y0029222D01*
X0105801Y0028907D01*
X0105618Y0028588D01*
X0105444Y0028265D01*
X0105277Y0027938D01*
X0105118Y0027607D01*
X0104968Y0027272D01*
X0104825Y0026934D01*
X0104691Y0026592D01*
X0104564Y0026247D01*
X0104447Y0025899D01*
X0104338Y0025549D01*
X0104237Y0025195D01*
X0104145Y0024840D01*
X0104061Y0024482D01*
X0103986Y0024123D01*
X0103920Y0023762D01*
X0103862Y0023399D01*
X0103814Y0023035D01*
X0103774Y0022670D01*
X0103743Y0022304D01*
X0103721Y0021937D01*
X0103707Y0021570D01*
X0103703Y0021203D01*
X0103703Y0008900D01*
X0118900Y0036400D02*
X0123771Y0036400D01*
D23*
X0051400Y0060400D02*
X0051400Y0063644D01*
X0051774Y0064018D01*
X0051400Y0060400D02*
X0048735Y0057735D01*
X0028900Y0057735D01*
X0028900Y0053900D01*
X0028900Y0021565D02*
X0021565Y0021565D01*
X0021400Y0021400D01*
M02*
