%
M48
M72
T01C0.01300
T02C0.02200
T03C0.04000
%
T01
X31900Y10400
X42900Y17900
X34900Y21400
X49400Y24400
X60400Y22400
X53900Y31400
X43900Y41400
X35400Y37400
X32400Y31400
X39400Y46400
X51400Y51400
X58900Y53900
X66400Y56400
X78900Y48900
X88900Y58900
X101400Y46400
X111400Y46400
X116400Y47900
X118900Y50900
X124400Y51900
X127900Y51900
X135900Y51900
X117900Y42900
X113900Y42400
X108900Y39900
X103900Y37400
X101400Y32400
X98900Y27400
X98900Y22400
X108900Y22400
X116400Y19900
X121400Y19900
X126400Y19900
X131400Y19900
X135400Y19900
X116400Y24900
X111400Y27400
X116400Y29900
X108900Y17400
X113400Y15900
X115400Y10900
X98900Y17400
X86400Y16400
X28900Y53900
X35900Y60900
X113900Y62900
T02
X118900Y36400
T03
X11400Y61400
X21400Y61400
X21400Y51400
X11400Y51400
X11400Y41400
X21400Y41400
X21400Y31400
X11400Y31400
X11400Y21400
X21400Y21400
X21400Y11400
X11400Y11400
M30
