G75*
%MOIN*%
%OFA0B0*%
%FSLAX25Y25*%
%IPPOS*%
%LPD*%
%AMOC8*
5,1,8,0,0,1.08239X$1,22.5*
%
%ADD10C,0.00000*%
%ADD11C,0.00681*%
%ADD12R,0.03450X0.05300*%
%ADD13R,0.07700X0.07700*%
%ADD14C,0.07700*%
%ADD15C,0.00860*%
%ADD16C,0.05300*%
%ADD17R,0.17300X0.06300*%
%ADD18C,0.01134*%
D10*
X0004900Y0004900D02*
X0004900Y0067900D01*
X0138687Y0067900D01*
X0138687Y0004900D01*
X0004900Y0004900D01*
D11*
X0029891Y0016441D02*
X0029891Y0018029D01*
X0029891Y0016441D02*
X0027909Y0016441D01*
X0027909Y0018029D01*
X0029891Y0018029D01*
X0029891Y0017121D02*
X0027909Y0017121D01*
X0027909Y0017801D02*
X0029891Y0017801D01*
X0029891Y0020771D02*
X0029891Y0022359D01*
X0029891Y0020771D02*
X0027909Y0020771D01*
X0027909Y0022359D01*
X0029891Y0022359D01*
X0029891Y0021451D02*
X0027909Y0021451D01*
X0027909Y0022131D02*
X0029891Y0022131D01*
X0027909Y0056941D02*
X0027909Y0058529D01*
X0029891Y0058529D01*
X0029891Y0056941D01*
X0027909Y0056941D01*
X0027909Y0057621D02*
X0029891Y0057621D01*
X0029891Y0058301D02*
X0027909Y0058301D01*
X0027909Y0061271D02*
X0027909Y0062859D01*
X0029891Y0062859D01*
X0029891Y0061271D01*
X0027909Y0061271D01*
X0027909Y0061951D02*
X0029891Y0061951D01*
X0029891Y0062631D02*
X0027909Y0062631D01*
X0116441Y0063391D02*
X0118029Y0063391D01*
X0118029Y0061409D01*
X0116441Y0061409D01*
X0116441Y0063391D01*
X0116441Y0062089D02*
X0118029Y0062089D01*
X0118029Y0062769D02*
X0116441Y0062769D01*
X0120771Y0063391D02*
X0122359Y0063391D01*
X0122359Y0061409D01*
X0120771Y0061409D01*
X0120771Y0063391D01*
X0120771Y0062089D02*
X0122359Y0062089D01*
X0122359Y0062769D02*
X0120771Y0062769D01*
X0120771Y0055891D02*
X0122359Y0055891D01*
X0122359Y0053909D01*
X0120771Y0053909D01*
X0120771Y0055891D01*
X0120771Y0054589D02*
X0122359Y0054589D01*
X0122359Y0055269D02*
X0120771Y0055269D01*
X0118029Y0055891D02*
X0116441Y0055891D01*
X0118029Y0055891D02*
X0118029Y0053909D01*
X0116441Y0053909D01*
X0116441Y0055891D01*
X0116441Y0054589D02*
X0118029Y0054589D01*
X0118029Y0055269D02*
X0116441Y0055269D01*
X0118941Y0011891D02*
X0120529Y0011891D01*
X0120529Y0009909D01*
X0118941Y0009909D01*
X0118941Y0011891D01*
X0118941Y0010589D02*
X0120529Y0010589D01*
X0120529Y0011269D02*
X0118941Y0011269D01*
X0123271Y0011891D02*
X0124859Y0011891D01*
X0124859Y0009909D01*
X0123271Y0009909D01*
X0123271Y0011891D01*
X0123271Y0010589D02*
X0124859Y0010589D01*
X0124859Y0011269D02*
X0123271Y0011269D01*
D12*
X0108703Y0008900D03*
X0103703Y0008900D03*
X0098703Y0008900D03*
X0076774Y0008900D03*
X0071774Y0008900D03*
X0066774Y0008900D03*
X0061774Y0008900D03*
X0056774Y0008900D03*
X0051774Y0008900D03*
X0046774Y0008900D03*
X0041774Y0008900D03*
X0041774Y0064018D03*
X0046774Y0064018D03*
X0051774Y0064018D03*
X0056774Y0064018D03*
X0061774Y0064018D03*
X0066774Y0064018D03*
X0071774Y0064018D03*
X0076774Y0064018D03*
X0098703Y0064018D03*
X0103703Y0064018D03*
X0108703Y0064018D03*
D13*
X0021400Y0011400D03*
D14*
X0011400Y0011400D03*
X0011400Y0021400D03*
X0021400Y0021400D03*
X0021400Y0031400D03*
X0011400Y0031400D03*
X0011400Y0041400D03*
X0021400Y0041400D03*
X0021400Y0051400D03*
X0011400Y0051400D03*
X0011400Y0061400D03*
X0021400Y0061400D03*
D15*
X0121051Y0038120D02*
X0126491Y0038120D01*
X0126491Y0034680D01*
X0121051Y0034680D01*
X0121051Y0038120D01*
X0121051Y0035539D02*
X0126491Y0035539D01*
X0126491Y0036398D02*
X0121051Y0036398D01*
X0121051Y0037257D02*
X0126491Y0037257D01*
X0126491Y0038116D02*
X0121051Y0038116D01*
D16*
X0118900Y0036400D03*
D17*
X0129650Y0046400D03*
X0129650Y0026400D03*
D18*
X0130646Y0011467D02*
X0130646Y0010333D01*
X0129512Y0010333D01*
X0129512Y0011467D01*
X0130646Y0011467D01*
X0130646Y0011466D02*
X0129512Y0011466D01*
X0134288Y0011467D02*
X0134288Y0010333D01*
X0133154Y0010333D01*
X0133154Y0011467D01*
X0134288Y0011467D01*
X0134288Y0011466D02*
X0133154Y0011466D01*
X0134788Y0054333D02*
X0134788Y0055467D01*
X0134788Y0054333D02*
X0133654Y0054333D01*
X0133654Y0055467D01*
X0134788Y0055467D01*
X0134788Y0055466D02*
X0133654Y0055466D01*
X0131146Y0055467D02*
X0131146Y0054333D01*
X0130012Y0054333D01*
X0130012Y0055467D01*
X0131146Y0055467D01*
X0131146Y0055466D02*
X0130012Y0055466D01*
X0131146Y0061833D02*
X0131146Y0062967D01*
X0131146Y0061833D02*
X0130012Y0061833D01*
X0130012Y0062967D01*
X0131146Y0062967D01*
X0131146Y0062966D02*
X0130012Y0062966D01*
X0134788Y0062967D02*
X0134788Y0061833D01*
X0133654Y0061833D01*
X0133654Y0062967D01*
X0134788Y0062967D01*
X0134788Y0062966D02*
X0133654Y0062966D01*
M02*
