G75*
%MOIN*%
%OFA0B0*%
%FSLAX25Y25*%
%IPPOS*%
%LPD*%
%AMOC8*
5,1,8,0,0,1.08239X$1,22.5*
%
%ADD10C,0.00000*%
%ADD11R,0.07400X0.07400*%
%ADD12C,0.07400*%
%ADD13C,0.05000*%
%ADD14C,0.00450*%
%ADD15R,0.17000X0.06000*%
%ADD16C,0.00800*%
%ADD17C,0.02100*%
%ADD18C,0.01000*%
%ADD19C,0.01600*%
D10*
X0004900Y0004900D02*
X0004900Y0067900D01*
X0138687Y0067900D01*
X0138687Y0004900D01*
X0004900Y0004900D01*
D11*
X0021400Y0011400D03*
D12*
X0011400Y0011400D03*
X0011400Y0021400D03*
X0021400Y0021400D03*
X0021400Y0031400D03*
X0011400Y0031400D03*
X0011400Y0041400D03*
X0021400Y0041400D03*
X0021400Y0051400D03*
X0011400Y0051400D03*
X0011400Y0061400D03*
X0021400Y0061400D03*
D13*
X0118900Y0036400D03*
D14*
X0120996Y0034375D02*
X0128546Y0034375D01*
X0120996Y0034375D02*
X0120996Y0038425D01*
X0128546Y0038425D01*
X0128546Y0034375D01*
X0128546Y0034824D02*
X0120996Y0034824D01*
X0120996Y0035273D02*
X0128546Y0035273D01*
X0128546Y0035722D02*
X0120996Y0035722D01*
X0120996Y0036171D02*
X0128546Y0036171D01*
X0128546Y0036620D02*
X0120996Y0036620D01*
X0120996Y0037069D02*
X0128546Y0037069D01*
X0128546Y0037518D02*
X0120996Y0037518D01*
X0120996Y0037967D02*
X0128546Y0037967D01*
X0128546Y0038416D02*
X0120996Y0038416D01*
D15*
X0129650Y0046400D03*
X0129650Y0026400D03*
D16*
X0129250Y0026497D02*
X0031100Y0026497D01*
X0031100Y0025699D02*
X0119750Y0025699D01*
X0119750Y0026000D02*
X0119750Y0023216D01*
X0119845Y0022860D01*
X0120030Y0022540D01*
X0120290Y0022280D01*
X0120610Y0022095D01*
X0120966Y0022000D01*
X0129250Y0022000D01*
X0129250Y0026000D01*
X0130050Y0026000D01*
X0130050Y0022000D01*
X0136787Y0022000D01*
X0136787Y0006800D01*
X0026180Y0006800D01*
X0026500Y0007120D01*
X0026500Y0014500D01*
X0030613Y0014500D01*
X0038113Y0007000D01*
X0114187Y0007000D01*
X0115637Y0008450D01*
X0115887Y0008450D01*
X0116788Y0008823D01*
X0117477Y0009512D01*
X0117850Y0010413D01*
X0117850Y0011387D01*
X0117477Y0012288D01*
X0116788Y0012977D01*
X0115887Y0013350D01*
X0114913Y0013350D01*
X0114012Y0012977D01*
X0113323Y0012288D01*
X0112950Y0011387D01*
X0112950Y0011137D01*
X0112613Y0010800D01*
X0039687Y0010800D01*
X0032187Y0018300D01*
X0025512Y0018300D01*
X0025724Y0018511D01*
X0026009Y0019200D01*
X0027311Y0019200D01*
X0029811Y0021700D01*
X0031100Y0022989D01*
X0031100Y0029287D01*
X0031913Y0028950D01*
X0032887Y0028950D01*
X0033788Y0029323D01*
X0033965Y0029500D01*
X0052335Y0029500D01*
X0052512Y0029323D01*
X0053413Y0028950D01*
X0054387Y0028950D01*
X0055288Y0029323D01*
X0055977Y0030012D01*
X0056350Y0030913D01*
X0056350Y0031887D01*
X0055977Y0032788D01*
X0055288Y0033477D01*
X0054387Y0033850D01*
X0053413Y0033850D01*
X0052512Y0033477D01*
X0052335Y0033300D01*
X0033965Y0033300D01*
X0033788Y0033477D01*
X0032887Y0033850D01*
X0031913Y0033850D01*
X0031100Y0033513D01*
X0031100Y0052809D01*
X0031350Y0053413D01*
X0031350Y0054387D01*
X0031303Y0054500D01*
X0045613Y0054500D01*
X0048950Y0051163D01*
X0048950Y0050913D01*
X0049323Y0050012D01*
X0050012Y0049323D01*
X0050913Y0048950D01*
X0051887Y0048950D01*
X0052788Y0049323D01*
X0053477Y0050012D01*
X0053850Y0050913D01*
X0053850Y0051887D01*
X0053477Y0052788D01*
X0052788Y0053477D01*
X0051887Y0053850D01*
X0051637Y0053850D01*
X0047187Y0058300D01*
X0025452Y0058300D01*
X0025762Y0058727D01*
X0026126Y0059442D01*
X0026374Y0060206D01*
X0026500Y0060999D01*
X0026500Y0061000D01*
X0021800Y0061000D01*
X0021800Y0061800D01*
X0026500Y0061800D01*
X0026500Y0061801D01*
X0026374Y0062594D01*
X0026126Y0063358D01*
X0025762Y0064073D01*
X0025452Y0064500D01*
X0025613Y0064500D01*
X0028113Y0062000D01*
X0058113Y0062000D01*
X0063950Y0056163D01*
X0063950Y0055913D01*
X0064323Y0055012D01*
X0065012Y0054323D01*
X0065913Y0053950D01*
X0066887Y0053950D01*
X0067788Y0054323D01*
X0068477Y0055012D01*
X0068850Y0055913D01*
X0068850Y0056887D01*
X0068477Y0057788D01*
X0067788Y0058477D01*
X0066887Y0058850D01*
X0066637Y0058850D01*
X0060800Y0064687D01*
X0059687Y0065800D01*
X0029687Y0065800D01*
X0029487Y0066000D01*
X0136787Y0066000D01*
X0136787Y0050800D01*
X0130050Y0050800D01*
X0130050Y0046800D01*
X0129250Y0046800D01*
X0129250Y0050800D01*
X0120966Y0050800D01*
X0120610Y0050705D01*
X0120290Y0050520D01*
X0120030Y0050260D01*
X0119845Y0049940D01*
X0119750Y0049584D01*
X0119750Y0046800D01*
X0129250Y0046800D01*
X0129250Y0046000D01*
X0130050Y0046000D01*
X0130050Y0042000D01*
X0136787Y0042000D01*
X0136787Y0030800D01*
X0130050Y0030800D01*
X0130050Y0026800D01*
X0129250Y0026800D01*
X0129250Y0030800D01*
X0120966Y0030800D01*
X0120610Y0030705D01*
X0120290Y0030520D01*
X0120030Y0030260D01*
X0119845Y0029940D01*
X0119750Y0029584D01*
X0119750Y0026800D01*
X0129250Y0026800D01*
X0129250Y0026000D01*
X0119750Y0026000D01*
X0119750Y0024900D02*
X0031100Y0024900D01*
X0031100Y0024102D02*
X0119750Y0024102D01*
X0119750Y0023303D02*
X0031100Y0023303D01*
X0030616Y0022505D02*
X0120065Y0022505D01*
X0129250Y0022505D02*
X0130050Y0022505D01*
X0130050Y0023303D02*
X0129250Y0023303D01*
X0129250Y0024102D02*
X0130050Y0024102D01*
X0130050Y0024900D02*
X0129250Y0024900D01*
X0129250Y0025699D02*
X0130050Y0025699D01*
X0130050Y0027296D02*
X0129250Y0027296D01*
X0129250Y0028094D02*
X0130050Y0028094D01*
X0130050Y0028893D02*
X0129250Y0028893D01*
X0129250Y0029691D02*
X0130050Y0029691D01*
X0130050Y0030490D02*
X0129250Y0030490D01*
X0129219Y0032750D02*
X0130171Y0033702D01*
X0130171Y0039098D01*
X0129219Y0040050D01*
X0120323Y0040050D01*
X0120310Y0040037D01*
X0119676Y0040300D01*
X0118124Y0040300D01*
X0116691Y0039706D01*
X0115594Y0038609D01*
X0115000Y0037176D01*
X0115000Y0035624D01*
X0115594Y0034191D01*
X0116691Y0033094D01*
X0118124Y0032500D01*
X0119676Y0032500D01*
X0120310Y0032763D01*
X0120323Y0032750D01*
X0129219Y0032750D01*
X0129355Y0032885D02*
X0136787Y0032885D01*
X0136787Y0032087D02*
X0056267Y0032087D01*
X0055879Y0032885D02*
X0117194Y0032885D01*
X0116101Y0033684D02*
X0054788Y0033684D01*
X0053012Y0033684D02*
X0033288Y0033684D01*
X0031512Y0033684D02*
X0031100Y0033684D01*
X0031100Y0034482D02*
X0115473Y0034482D01*
X0115142Y0035281D02*
X0031100Y0035281D01*
X0031100Y0036079D02*
X0115000Y0036079D01*
X0115000Y0036878D02*
X0031100Y0036878D01*
X0031100Y0037676D02*
X0115207Y0037676D01*
X0115538Y0038475D02*
X0031100Y0038475D01*
X0031100Y0039273D02*
X0116258Y0039273D01*
X0117574Y0040072D02*
X0031100Y0040072D01*
X0031100Y0040870D02*
X0136787Y0040870D01*
X0136787Y0040072D02*
X0120226Y0040072D01*
X0120610Y0042095D02*
X0120966Y0042000D01*
X0129250Y0042000D01*
X0129250Y0046000D01*
X0119750Y0046000D01*
X0119750Y0043216D01*
X0119845Y0042860D01*
X0120030Y0042540D01*
X0120290Y0042280D01*
X0120610Y0042095D01*
X0120103Y0042468D02*
X0031100Y0042468D01*
X0031100Y0043266D02*
X0119750Y0043266D01*
X0119750Y0044065D02*
X0040164Y0044065D01*
X0039887Y0043950D02*
X0040788Y0044323D01*
X0040965Y0044500D01*
X0066187Y0044500D01*
X0067300Y0045613D01*
X0082687Y0061000D01*
X0112335Y0061000D01*
X0112512Y0060823D01*
X0113413Y0060450D01*
X0114387Y0060450D01*
X0115288Y0060823D01*
X0115977Y0061512D01*
X0116350Y0062413D01*
X0116350Y0063387D01*
X0115977Y0064288D01*
X0115288Y0064977D01*
X0114387Y0065350D01*
X0113413Y0065350D01*
X0112512Y0064977D01*
X0112335Y0064800D01*
X0081113Y0064800D01*
X0064613Y0048300D01*
X0040965Y0048300D01*
X0040788Y0048477D01*
X0039887Y0048850D01*
X0038913Y0048850D01*
X0038012Y0048477D01*
X0037323Y0047788D01*
X0036950Y0046887D01*
X0036950Y0045913D01*
X0037323Y0045012D01*
X0038012Y0044323D01*
X0038913Y0043950D01*
X0039887Y0043950D01*
X0038636Y0044065D02*
X0031100Y0044065D01*
X0031100Y0044863D02*
X0037472Y0044863D01*
X0037054Y0045662D02*
X0031100Y0045662D01*
X0031100Y0046460D02*
X0036950Y0046460D01*
X0037104Y0047259D02*
X0031100Y0047259D01*
X0031100Y0048057D02*
X0037592Y0048057D01*
X0031100Y0048856D02*
X0065169Y0048856D01*
X0065967Y0049654D02*
X0053119Y0049654D01*
X0053659Y0050453D02*
X0066766Y0050453D01*
X0067564Y0051251D02*
X0053850Y0051251D01*
X0053783Y0052050D02*
X0068363Y0052050D01*
X0069161Y0052848D02*
X0053417Y0052848D01*
X0052378Y0053647D02*
X0069960Y0053647D01*
X0070758Y0054445D02*
X0067910Y0054445D01*
X0068573Y0055244D02*
X0071557Y0055244D01*
X0072355Y0056042D02*
X0068850Y0056042D01*
X0068850Y0056841D02*
X0073154Y0056841D01*
X0073952Y0057639D02*
X0068539Y0057639D01*
X0067827Y0058438D02*
X0074751Y0058438D01*
X0075549Y0059236D02*
X0066251Y0059236D01*
X0065452Y0060035D02*
X0076348Y0060035D01*
X0077146Y0060833D02*
X0064654Y0060833D01*
X0063855Y0061632D02*
X0077945Y0061632D01*
X0078743Y0062430D02*
X0063057Y0062430D01*
X0062258Y0063229D02*
X0079542Y0063229D01*
X0080340Y0064027D02*
X0061460Y0064027D01*
X0060661Y0064826D02*
X0112361Y0064826D01*
X0115439Y0064826D02*
X0136787Y0064826D01*
X0136787Y0065624D02*
X0059863Y0065624D01*
X0058481Y0061632D02*
X0021800Y0061632D01*
X0025785Y0064027D02*
X0026086Y0064027D01*
X0026168Y0063229D02*
X0026884Y0063229D01*
X0026400Y0062430D02*
X0027683Y0062430D01*
X0026474Y0060833D02*
X0059280Y0060833D01*
X0060078Y0060035D02*
X0026319Y0060035D01*
X0026021Y0059236D02*
X0060877Y0059236D01*
X0061675Y0058438D02*
X0025552Y0058438D01*
X0031326Y0054445D02*
X0045668Y0054445D01*
X0046466Y0053647D02*
X0031350Y0053647D01*
X0031116Y0052848D02*
X0047265Y0052848D01*
X0048063Y0052050D02*
X0031100Y0052050D01*
X0031100Y0051251D02*
X0048862Y0051251D01*
X0049141Y0050453D02*
X0031100Y0050453D01*
X0031100Y0049654D02*
X0049681Y0049654D01*
X0051042Y0054445D02*
X0064890Y0054445D01*
X0064227Y0055244D02*
X0050243Y0055244D01*
X0049445Y0056042D02*
X0063950Y0056042D01*
X0063272Y0056841D02*
X0048646Y0056841D01*
X0047848Y0057639D02*
X0062474Y0057639D01*
X0073737Y0052050D02*
X0136787Y0052050D01*
X0136787Y0052848D02*
X0074535Y0052848D01*
X0075334Y0053647D02*
X0136787Y0053647D01*
X0136787Y0054445D02*
X0076132Y0054445D01*
X0076931Y0055244D02*
X0136787Y0055244D01*
X0136787Y0056042D02*
X0077729Y0056042D01*
X0078528Y0056841D02*
X0136787Y0056841D01*
X0136787Y0057639D02*
X0079326Y0057639D01*
X0080125Y0058438D02*
X0136787Y0058438D01*
X0136787Y0059236D02*
X0080923Y0059236D01*
X0081722Y0060035D02*
X0136787Y0060035D01*
X0136787Y0060833D02*
X0115298Y0060833D01*
X0116027Y0061632D02*
X0136787Y0061632D01*
X0136787Y0062430D02*
X0116350Y0062430D01*
X0116350Y0063229D02*
X0136787Y0063229D01*
X0136787Y0064027D02*
X0116085Y0064027D01*
X0112502Y0060833D02*
X0082520Y0060833D01*
X0072938Y0051251D02*
X0136787Y0051251D01*
X0130050Y0050453D02*
X0129250Y0050453D01*
X0129250Y0049654D02*
X0130050Y0049654D01*
X0130050Y0048856D02*
X0129250Y0048856D01*
X0129250Y0048057D02*
X0130050Y0048057D01*
X0130050Y0047259D02*
X0129250Y0047259D01*
X0129250Y0046460D02*
X0068147Y0046460D01*
X0067349Y0045662D02*
X0119750Y0045662D01*
X0119750Y0044863D02*
X0066550Y0044863D01*
X0067300Y0045613D02*
X0067300Y0045613D01*
X0068946Y0047259D02*
X0119750Y0047259D01*
X0119750Y0048057D02*
X0069744Y0048057D01*
X0070543Y0048856D02*
X0119750Y0048856D01*
X0119769Y0049654D02*
X0071341Y0049654D01*
X0072140Y0050453D02*
X0120223Y0050453D01*
X0129250Y0045662D02*
X0130050Y0045662D01*
X0130050Y0044863D02*
X0129250Y0044863D01*
X0129250Y0044065D02*
X0130050Y0044065D01*
X0130050Y0043266D02*
X0129250Y0043266D01*
X0129250Y0042468D02*
X0130050Y0042468D01*
X0129996Y0039273D02*
X0136787Y0039273D01*
X0136787Y0038475D02*
X0130171Y0038475D01*
X0130171Y0037676D02*
X0136787Y0037676D01*
X0136787Y0036878D02*
X0130171Y0036878D01*
X0130171Y0036079D02*
X0136787Y0036079D01*
X0136787Y0035281D02*
X0130171Y0035281D01*
X0130171Y0034482D02*
X0136787Y0034482D01*
X0136787Y0033684D02*
X0130153Y0033684D01*
X0136787Y0031288D02*
X0056350Y0031288D01*
X0056175Y0030490D02*
X0120260Y0030490D01*
X0119779Y0029691D02*
X0055656Y0029691D01*
X0032773Y0017714D02*
X0136787Y0017714D01*
X0136787Y0018512D02*
X0025724Y0018512D01*
X0027422Y0019311D02*
X0136787Y0019311D01*
X0136787Y0020109D02*
X0028220Y0020109D01*
X0029019Y0020908D02*
X0136787Y0020908D01*
X0136787Y0021706D02*
X0029817Y0021706D01*
X0033572Y0016915D02*
X0136787Y0016915D01*
X0136787Y0016117D02*
X0034370Y0016117D01*
X0035169Y0015318D02*
X0136787Y0015318D01*
X0136787Y0014520D02*
X0035967Y0014520D01*
X0036766Y0013721D02*
X0136787Y0013721D01*
X0136787Y0012923D02*
X0116842Y0012923D01*
X0117545Y0012124D02*
X0136787Y0012124D01*
X0136787Y0011326D02*
X0117850Y0011326D01*
X0117850Y0010527D02*
X0136787Y0010527D01*
X0136787Y0009729D02*
X0117567Y0009729D01*
X0116895Y0008930D02*
X0136787Y0008930D01*
X0136787Y0008132D02*
X0115319Y0008132D01*
X0114520Y0007333D02*
X0136787Y0007333D01*
X0113958Y0012923D02*
X0037564Y0012923D01*
X0038363Y0012124D02*
X0113255Y0012124D01*
X0112950Y0011326D02*
X0039161Y0011326D01*
X0035384Y0009729D02*
X0026500Y0009729D01*
X0026500Y0010527D02*
X0034586Y0010527D01*
X0033787Y0011326D02*
X0026500Y0011326D01*
X0026500Y0012124D02*
X0032989Y0012124D01*
X0032190Y0012923D02*
X0026500Y0012923D01*
X0026500Y0013721D02*
X0031392Y0013721D01*
X0036183Y0008930D02*
X0026500Y0008930D01*
X0026500Y0008132D02*
X0036981Y0008132D01*
X0037780Y0007333D02*
X0026500Y0007333D01*
X0031100Y0027296D02*
X0119750Y0027296D01*
X0119750Y0028094D02*
X0031100Y0028094D01*
X0031100Y0028893D02*
X0119750Y0028893D01*
X0136787Y0041669D02*
X0031100Y0041669D01*
D17*
X0035400Y0037400D03*
X0043900Y0041400D03*
X0039400Y0046400D03*
X0051400Y0051400D03*
X0058900Y0053900D03*
X0066400Y0056400D03*
X0078900Y0048900D03*
X0088900Y0058900D03*
X0101400Y0046400D03*
X0111400Y0046400D03*
X0116400Y0047900D03*
X0118900Y0050900D03*
X0124400Y0051900D03*
X0127900Y0051900D03*
X0135900Y0051900D03*
X0117900Y0042900D03*
X0113900Y0042400D03*
X0108900Y0039900D03*
X0103900Y0037400D03*
X0101400Y0032400D03*
X0098900Y0027400D03*
X0098900Y0022400D03*
X0108900Y0022400D03*
X0116400Y0019900D03*
X0121400Y0019900D03*
X0126400Y0019900D03*
X0131400Y0019900D03*
X0135400Y0019900D03*
X0116400Y0024900D03*
X0111400Y0027400D03*
X0116400Y0029900D03*
X0108900Y0017400D03*
X0113400Y0015900D03*
X0115400Y0010900D03*
X0098900Y0017400D03*
X0086400Y0016400D03*
X0060400Y0022400D03*
X0049400Y0024400D03*
X0042900Y0017900D03*
X0034900Y0021400D03*
X0032400Y0031400D03*
X0053900Y0031400D03*
X0031900Y0010400D03*
X0028900Y0053900D03*
X0035900Y0060900D03*
X0113900Y0062900D03*
D18*
X0081900Y0062900D01*
X0065400Y0046400D01*
X0039400Y0046400D01*
X0046400Y0056400D02*
X0051400Y0051400D01*
X0046400Y0056400D02*
X0016400Y0056400D01*
X0011400Y0051400D01*
X0011400Y0061400D02*
X0016400Y0066400D01*
X0026400Y0066400D01*
X0028900Y0063900D01*
X0058900Y0063900D01*
X0066400Y0056400D01*
X0053900Y0031400D02*
X0032400Y0031400D01*
X0031400Y0016400D02*
X0016400Y0016400D01*
X0011400Y0011400D01*
X0031400Y0016400D02*
X0038900Y0008900D01*
X0113400Y0008900D01*
X0115400Y0010900D01*
D19*
X0118900Y0036400D02*
X0124771Y0036400D01*
X0028900Y0023900D02*
X0028900Y0053900D01*
X0028900Y0023900D02*
X0026400Y0021400D01*
X0021400Y0021400D01*
M02*
