G75*
%MOIN*%
%OFA0B0*%
%FSLAX25Y25*%
%IPPOS*%
%LPD*%
%AMOC8*
5,1,8,0,0,1.08239X$1,22.5*
%
%ADD10C,0.00000*%
%ADD11C,0.00591*%
%ADD12R,0.03150X0.05000*%
%ADD13C,0.00800*%
%ADD14C,0.00984*%
D10*
X0004900Y0004900D02*
X0004900Y0067900D01*
X0138687Y0067900D01*
X0138687Y0004900D01*
X0004900Y0004900D01*
D11*
X0029786Y0016546D02*
X0029786Y0017924D01*
X0029786Y0016546D02*
X0028014Y0016546D01*
X0028014Y0017924D01*
X0029786Y0017924D01*
X0029786Y0017136D02*
X0028014Y0017136D01*
X0028014Y0017726D02*
X0029786Y0017726D01*
X0029786Y0020876D02*
X0029786Y0022254D01*
X0029786Y0020876D02*
X0028014Y0020876D01*
X0028014Y0022254D01*
X0029786Y0022254D01*
X0029786Y0021466D02*
X0028014Y0021466D01*
X0028014Y0022056D02*
X0029786Y0022056D01*
X0028014Y0057046D02*
X0028014Y0058424D01*
X0029786Y0058424D01*
X0029786Y0057046D01*
X0028014Y0057046D01*
X0028014Y0057636D02*
X0029786Y0057636D01*
X0029786Y0058226D02*
X0028014Y0058226D01*
X0028014Y0061376D02*
X0028014Y0062754D01*
X0029786Y0062754D01*
X0029786Y0061376D01*
X0028014Y0061376D01*
X0028014Y0061966D02*
X0029786Y0061966D01*
X0029786Y0062556D02*
X0028014Y0062556D01*
X0116546Y0063286D02*
X0117924Y0063286D01*
X0117924Y0061514D01*
X0116546Y0061514D01*
X0116546Y0063286D01*
X0116546Y0062104D02*
X0117924Y0062104D01*
X0117924Y0062694D02*
X0116546Y0062694D01*
X0116546Y0063284D02*
X0117924Y0063284D01*
X0120876Y0063286D02*
X0122254Y0063286D01*
X0122254Y0061514D01*
X0120876Y0061514D01*
X0120876Y0063286D01*
X0120876Y0062104D02*
X0122254Y0062104D01*
X0122254Y0062694D02*
X0120876Y0062694D01*
X0120876Y0063284D02*
X0122254Y0063284D01*
X0122254Y0055786D02*
X0120876Y0055786D01*
X0122254Y0055786D02*
X0122254Y0054014D01*
X0120876Y0054014D01*
X0120876Y0055786D01*
X0120876Y0054604D02*
X0122254Y0054604D01*
X0122254Y0055194D02*
X0120876Y0055194D01*
X0120876Y0055784D02*
X0122254Y0055784D01*
X0117924Y0055786D02*
X0116546Y0055786D01*
X0117924Y0055786D02*
X0117924Y0054014D01*
X0116546Y0054014D01*
X0116546Y0055786D01*
X0116546Y0054604D02*
X0117924Y0054604D01*
X0117924Y0055194D02*
X0116546Y0055194D01*
X0116546Y0055784D02*
X0117924Y0055784D01*
X0119046Y0011786D02*
X0120424Y0011786D01*
X0120424Y0010014D01*
X0119046Y0010014D01*
X0119046Y0011786D01*
X0119046Y0010604D02*
X0120424Y0010604D01*
X0120424Y0011194D02*
X0119046Y0011194D01*
X0119046Y0011784D02*
X0120424Y0011784D01*
X0123376Y0011786D02*
X0124754Y0011786D01*
X0124754Y0010014D01*
X0123376Y0010014D01*
X0123376Y0011786D01*
X0123376Y0010604D02*
X0124754Y0010604D01*
X0124754Y0011194D02*
X0123376Y0011194D01*
X0123376Y0011784D02*
X0124754Y0011784D01*
D12*
X0108703Y0008900D03*
X0103703Y0008900D03*
X0098703Y0008900D03*
X0076774Y0008900D03*
X0071774Y0008900D03*
X0066774Y0008900D03*
X0061774Y0008900D03*
X0056774Y0008900D03*
X0051774Y0008900D03*
X0046774Y0008900D03*
X0041774Y0008900D03*
X0041774Y0064018D03*
X0046774Y0064018D03*
X0051774Y0064018D03*
X0056774Y0064018D03*
X0061774Y0064018D03*
X0066774Y0064018D03*
X0071774Y0064018D03*
X0076774Y0064018D03*
X0098703Y0064018D03*
X0103703Y0064018D03*
X0108703Y0064018D03*
D13*
X0121171Y0038000D02*
X0126371Y0038000D01*
X0126371Y0034800D01*
X0121171Y0034800D01*
X0121171Y0038000D01*
X0121171Y0035599D02*
X0126371Y0035599D01*
X0126371Y0036398D02*
X0121171Y0036398D01*
X0121171Y0037197D02*
X0126371Y0037197D01*
X0126371Y0037996D02*
X0121171Y0037996D01*
D14*
X0131071Y0054408D02*
X0131071Y0055392D01*
X0131071Y0054408D02*
X0130087Y0054408D01*
X0130087Y0055392D01*
X0131071Y0055392D01*
X0131071Y0055391D02*
X0130087Y0055391D01*
X0134713Y0055392D02*
X0134713Y0054408D01*
X0133729Y0054408D01*
X0133729Y0055392D01*
X0134713Y0055392D01*
X0134713Y0055391D02*
X0133729Y0055391D01*
X0134713Y0061908D02*
X0134713Y0062892D01*
X0134713Y0061908D02*
X0133729Y0061908D01*
X0133729Y0062892D01*
X0134713Y0062892D01*
X0134713Y0062891D02*
X0133729Y0062891D01*
X0131071Y0062892D02*
X0131071Y0061908D01*
X0130087Y0061908D01*
X0130087Y0062892D01*
X0131071Y0062892D01*
X0131071Y0062891D02*
X0130087Y0062891D01*
X0130571Y0011392D02*
X0130571Y0010408D01*
X0129587Y0010408D01*
X0129587Y0011392D01*
X0130571Y0011392D01*
X0130571Y0011391D02*
X0129587Y0011391D01*
X0134213Y0011392D02*
X0134213Y0010408D01*
X0133229Y0010408D01*
X0133229Y0011392D01*
X0134213Y0011392D01*
X0134213Y0011391D02*
X0133229Y0011391D01*
M02*
